<svg xmlns="http://www.w3.org/2000/svg" width="1200" height="630" viewBox="0 0 1200 630">
  <defs>
    <pattern id="grid" width="42" height="42" patternUnits="userSpaceOnUse">
      <path d="M42 0H0V42" fill="none" stroke="#e8e4db" stroke-opacity=".07"/>
    </pattern>
    <linearGradient id="wash" x1="0" y1="0" x2="1" y2="1">
      <stop offset="0" stop-color="#18382f"/>
      <stop offset="1" stop-color="#111714"/>
    </linearGradient>
  </defs>
  <rect width="1200" height="630" fill="#111714"/>
  <rect x="32" y="32" width="1136" height="566" fill="url(#wash)" stroke="#e8e4db" stroke-opacity=".2"/>
  <rect x="32" y="32" width="1136" height="566" fill="url(#grid)"/>
  <text x="78" y="98" fill="#f0b84b" font-family="monospace" font-size="18" letter-spacing="4">ETCH-AI-SKETCH / FIELD GUIDE 01</text>
  <path d="M78 124h365" stroke="#d8793e" stroke-width="2"/>
  <text x="78" y="234" fill="#e8e4db" font-family="Georgia, serif" font-size="64" font-weight="bold">The first diagram</text>
  <text x="78" y="310" fill="#d8793e" font-family="Georgia, serif" font-size="64" font-weight="bold">is usually a liar.</text>
  <text x="80" y="372" fill="#b3b7ad" font-family="monospace" font-size="15" letter-spacing="2">MAKE THE THINKING — AND THE LOOP — VISIBLE.</text>
  <path d="M752 176h196c78 0 94 85 24 125H827c-66 0-81 85-3 121h180" fill="none" stroke="#f0b84b" stroke-linecap="round" stroke-width="5"/>
  <path d="M972 301c-41 30-81 33-119 17" fill="none" stroke="#d8793e" stroke-width="5" stroke-dasharray="15 11" stroke-linecap="round"/>
  <circle cx="752" cy="176" r="22" fill="#234c40" stroke="#e8e4db" stroke-width="3"/>
  <circle cx="948" cy="176" r="22" fill="#f0b84b"/>
  <circle cx="824" cy="301" r="22" fill="#713c2b" stroke="#d8793e" stroke-width="3"/>
  <circle cx="1004" cy="422" r="22" fill="#234c40" stroke="#e8e4db" stroke-width="3"/>
  <text x="746" y="183" fill="#e8e4db" font-family="monospace" font-size="17">A</text>
  <text x="942" y="183" fill="#111714" font-family="monospace" font-size="17">?</text>
  <text x="818" y="308" fill="#e8e4db" font-family="monospace" font-size="17">B</text>
  <text x="998" y="429" fill="#e8e4db" font-family="monospace" font-size="17">✓</text>
  <text x="78" y="554" fill="#d8793e" font-family="monospace" font-size="15" letter-spacing="3">OVERKILL HILL P³™ / ROY 001</text>
</svg>